External Loads File
version=1
nRows=38
nColumns=13
Range=5.000000e-03-10 seconds
endheader
time 	forceRightX 	forceRightY 	forceRightZ 	pointRightX 	pointRightY 	pointRightZ 	forceLeftX 	forceLeftY 	forceLeftZ 	pointLeftX 	pointLeftY 	pointLeftZ 		
0.005000 -68.716309 163.881809 -0.000000 0.399409 0.269564 -0.133609 110.880909 104.000533 -0.000000 0.131152 0.388571 -0.378300
0.010000 -69.229100 163.907734 -0.000000 0.399660 0.270166 -0.133598 111.356279 104.049945 -0.000000 0.130965 0.388135 -0.378279
0.015000 -69.461077 163.947412 -0.000000 0.399919 0.270508 -0.133595 111.905166 104.013503 -0.000000 0.130798 0.387755 -0.378285
0.020000 -69.620114 163.872213 -0.000000 0.400152 0.270997 -0.133582 112.335792 104.079107 -0.000000 0.130579 0.387380 -0.378238
0.025000 -69.533902 163.767778 -0.000000 0.400218 0.271288 -0.133498 112.767762 104.119254 -0.000000 0.130342 0.386984 -0.378246
0.030000 -69.397980 163.597267 -0.000000 0.400489 0.271621 -0.133531 113.125109 104.217387 -0.000000 0.130179 0.386676 -0.378161
0.035000 -69.312019 163.364021 -0.000000 0.400714 0.271949 -0.133534 113.398366 104.376464 -0.000000 0.130013 0.386252 -0.378142
0.040000 -69.295268 163.090454 -0.000000 0.400914 0.272341 -0.133549 113.613576 104.552562 -0.000000 0.129852 0.385821 -0.378160
0.045000 -69.318313 162.812407 -0.000000 0.401120 0.272751 -0.133538 113.802734 104.689825 -0.000000 0.129732 0.385435 -0.378221
0.050000 -69.358634 162.555892 -0.000000 0.401280 0.273100 -0.133487 113.968989 104.765393 -0.000000 0.129581 0.385084 -0.378212
0.055000 -69.452637 162.299959 -0.000000 0.401524 0.273442 -0.133488 114.059628 104.827810 -0.000000 0.129427 0.384756 -0.378214
0.060000 -69.542532 162.038078 -0.000000 0.401743 0.273785 -0.133485 114.080442 104.879082 -0.000000 0.129270 0.384445 -0.378193
0.065000 -69.608141 161.741812 -0.000000 0.401975 0.274088 -0.133489 114.024933 104.946284 -0.000000 0.129113 0.384085 -0.378183
0.070000 -69.691282 161.370676 -0.000000 0.402206 0.274493 -0.133495 113.863853 105.083048 -0.000000 0.128990 0.383689 -0.378192
0.075000 -69.700676 160.960884 -0.000000 0.402450 0.274821 -0.133574 113.680727 105.224397 -0.000000 0.128852 0.383302 -0.378179
0.080000 -69.703562 160.496538 -0.000000 0.402564 0.275172 -0.133457 113.478023 105.393372 -0.000000 0.128712 0.382872 -0.378166
0.085000 -69.666983 160.016761 -0.000000 0.402748 0.275528 -0.133467 113.320264 105.530386 -0.000000 0.128589 0.382577 -0.378159
0.090000 -69.625816 159.538585 -0.000000 0.402921 0.275793 -0.133452 113.213394 105.622527 -0.000000 0.128460 0.382290 -0.378178
0.095000 -69.675717 159.055373 -0.000000 0.403117 0.276087 -0.133440 113.118089 105.701696 -0.000000 0.128341 0.382018 -0.378182
0.100000 -69.837643 158.581945 -0.000000 0.403330 0.276397 -0.133455 113.034655 105.761322 -0.000000 0.128236 0.381742 -0.378199
0.105000 -70.090190 158.121337 -0.000000 0.403455 0.276693 -0.133448 112.965137 105.801826 -0.000000 0.128127 0.381389 -0.378212
0.110000 -70.346775 157.677824 -0.000000 0.403602 0.277005 -0.133469 112.931356 105.813287 -0.000000 0.128003 0.381079 -0.378213
0.115000 -70.549238 157.241265 -0.000000 0.403774 0.277309 -0.133452 112.931534 105.812011 -0.000000 0.127911 0.380759 -0.378228
0.120000 -70.659627 156.806803 -0.000000 0.403992 0.277575 -0.133473 112.959165 105.809514 -0.000000 0.127821 0.380426 -0.378229
0.125000 -70.623598 156.387296 -0.000000 0.404125 0.277796 -0.133408 113.029435 105.781051 -0.000000 0.127712 0.380122 -0.378214
0.130000 -70.474263 155.956192 -0.000000 0.404273 0.278051 -0.133398 113.104068 105.746556 -0.000000 0.127621 0.379891 -0.378206
0.135000 -70.233679 155.486209 -0.000000 0.404441 0.278323 -0.133397 113.156403 105.709312 -0.000000 0.127535 0.379691 -0.378215
0.140000 -69.845446 154.982466 -0.000000 0.404552 0.278472 -0.133364 113.221262 105.609705 -0.000000 0.127449 0.379489 -0.378212
0.145000 -69.448565 154.370111 -0.000000 0.404694 0.278707 -0.133366 113.212304 105.520241 -0.000000 0.127367 0.379282 -0.378194
0.150000 -68.999062 153.674578 -0.000000 0.404813 0.278917 -0.133346 113.174503 105.376274 -0.000000 0.127297 0.379078 -0.378212
0.155000 -68.549869 152.889056 -0.000000 0.404970 0.279109 -0.133336 113.077310 105.202021 -0.000000 0.127230 0.378834 -0.378208
0.160000 -68.096594 152.029946 -0.000000 0.405097 0.279339 -0.133342 112.914258 105.006179 -0.000000 0.127151 0.378577 -0.378181
0.165000 -67.576743 151.136980 -0.000000 0.405215 0.279556 -0.133336 112.723878 104.759761 -0.000000 0.127087 0.378361 -0.378161
0.170000 -67.149298 150.163698 -0.000000 0.405361 0.279869 -0.133359 112.426134 104.573213 -0.000000 0.127019 0.378017 -0.378170
0.175000 -66.651382 149.231199 -0.000000 0.405480 0.280105 -0.133353 112.203253 104.283659 -0.000000 0.126960 0.377801 -0.378178
0.180000 -66.248393 148.323668 -0.000000 0.405618 0.280291 -0.133350 112.010877 103.969726 -0.000000 0.126910 0.377548 -0.378168
0.185000 -65.946514 147.477464 -0.000000 0.405688 0.280460 -0.133343 111.877779 103.621234 -0.000000 0.126846 0.377338 -0.378175
0.190000 -65.794018 146.677280 -0.000000 0.405841 0.280661 -0.133337 111.756998 103.297163 -0.000000 0.126791 0.377151 -0.378168
